<svg width="100%" height="100%" viewBox="0 0 24 24" version="1.1" xmlns="http://www.w3.org/2000/svg" xmlns:xlink="http://www.w3.org/1999/xlink" xml:space="preserve" xmlns:serif="http://www.serif.com/" style="fill:white;fill-rule:evenodd;clip-rule:evenodd;stroke-linejoin:round;stroke-miterlimit:2;">
    <g transform="matrix(0.106298,0,0,0.101268,1,1)">
        <path d="M129.751,51.484C132.634,51.002 135.554,50.761 138.511,50.761C156.776,50.761 173.446,60.048 183.094,75.22C186.412,73.263 189.588,70.99 192.35,68.025C196.655,63.389 199.68,58.001 201.434,52.326C188.49,57.158 173.408,54.802 162.646,44.748C150.018,32.978 147.474,14.607 155.06,-0C146.737,1.528 138.805,5.599 132.588,12.267C124.22,21.238 120.833,32.955 121.985,44.266C124.732,46.456 127.366,48.819 129.751,51.484ZM104.487,167.831L79.78,143.124L129.194,93.733L30.359,143.117L55.066,167.824L5.652,217.245L104.487,167.831ZM178.759,82.633C170.97,67.694 155.655,58.279 138.511,58.279C134.553,58.279 130.647,58.784 126.869,59.784C116.408,46.17 100.401,38.201 82.994,38.201C56.556,38.201 33.888,57.188 28.666,82.535C12.478,84.89 -0,98.866 -0,115.693C-0,131.046 10.446,143.892 24.556,147.836C23.209,146.172 22.577,144.043 22.923,141.913C23.315,139.527 24.82,137.458 26.987,136.389L31.804,133.981C22.434,133.093 15.059,125.273 15.059,115.693C15.059,105.526 23.322,97.255 33.422,97.255L33.452,97.255L42.137,97.819L42.716,90.474C44.364,69.606 62.057,53.26 82.994,53.26C97.157,53.26 110.049,60.514 117.484,72.661L120.848,78.162L126.801,75.679C130.526,74.121 134.485,73.338 138.519,73.338C151.041,73.338 162.149,80.864 166.778,92.521L168.622,97.21L173.686,97.27C183.756,97.391 191.944,105.654 191.944,115.701C191.944,124.25 186.104,131.377 178.187,133.469L162.413,149.205L173.438,149.205C191.921,149.205 206.965,134.169 206.965,115.693C206.965,99.121 194.698,85.206 178.759,82.633ZM96.502,149.205L105.458,149.205L135.569,134.154L99.355,134.154L90.392,143.117L96.502,149.205ZM181.25,119.734L105.496,157.604L124.43,176.546L86.561,214.423L162.323,176.546L143.373,157.604L181.25,119.734Z"/>
    </g>
</svg>
